<mxfile host="app.diagrams.net" agent="Mozilla/5.0 (X11; Linux x86_64) AppleWebKit/537.36 (KHTML, like Gecko) Chrome/131.0.0.0 Safari/537.36" version="24.8.3">
  <diagram name="Page-1" id="UUHnBk5SQWEpMYSUC_ED">
    <mxGraphModel dx="1526" dy="2207" grid="1" gridSize="10" guides="1" tooltips="1" connect="1" arrows="1" fold="1" page="1" pageScale="1" pageWidth="827" pageHeight="1169" math="0" shadow="0">
      <root>
        <mxCell id="0" />
        <mxCell id="1" parent="0" />
        <mxCell id="FrmBiObON0Puny6aP4iV-28" style="edgeStyle=orthogonalEdgeStyle;rounded=0;orthogonalLoop=1;jettySize=auto;html=1;entryX=0;entryY=0.5;entryDx=0;entryDy=0;startArrow=classic;startFill=1;" edge="1" parent="1" source="FrmBiObON0Puny6aP4iV-20" target="FrmBiObON0Puny6aP4iV-26">
          <mxGeometry relative="1" as="geometry" />
        </mxCell>
        <mxCell id="FrmBiObON0Puny6aP4iV-20" value="" style="html=1;whiteSpace=wrap;fillColor=#dae8fc;strokeColor=#6c8ebf;" vertex="1" parent="1">
          <mxGeometry x="42.5" y="-40" width="335" height="270" as="geometry" />
        </mxCell>
        <mxCell id="FrmBiObON0Puny6aP4iV-8" value="web page" style="html=1;dropTarget=0;whiteSpace=wrap;" vertex="1" parent="1">
          <mxGeometry x="110" width="180" height="90" as="geometry" />
        </mxCell>
        <mxCell id="FrmBiObON0Puny6aP4iV-9" value="" style="shape=module;jettyWidth=8;jettyHeight=4;" vertex="1" parent="FrmBiObON0Puny6aP4iV-8">
          <mxGeometry x="1" width="20" height="20" relative="1" as="geometry">
            <mxPoint x="-27" y="7" as="offset" />
          </mxGeometry>
        </mxCell>
        <mxCell id="FrmBiObON0Puny6aP4iV-21" value="Klient (frontend&lt;span style=&quot;background-color: initial;&quot;&gt;)&lt;/span&gt;" style="text;html=1;align=center;verticalAlign=middle;whiteSpace=wrap;rounded=0;" vertex="1" parent="1">
          <mxGeometry x="170" y="-80" width="60" height="30" as="geometry" />
        </mxCell>
        <mxCell id="FrmBiObON0Puny6aP4iV-22" value="qr scanner" style="shape=module;align=left;spacingLeft=20;align=center;verticalAlign=top;whiteSpace=wrap;html=1;" vertex="1" parent="1">
          <mxGeometry x="110" y="120" width="100" height="50" as="geometry" />
        </mxCell>
        <mxCell id="FrmBiObON0Puny6aP4iV-25" style="edgeStyle=orthogonalEdgeStyle;rounded=0;orthogonalLoop=1;jettySize=auto;html=1;entryX=0;entryY=0;entryDx=0;entryDy=15;entryPerimeter=0;exitX=0;exitY=0.5;exitDx=0;exitDy=0;" edge="1" parent="1" source="FrmBiObON0Puny6aP4iV-8" target="FrmBiObON0Puny6aP4iV-22">
          <mxGeometry relative="1" as="geometry" />
        </mxCell>
        <mxCell id="FrmBiObON0Puny6aP4iV-26" value="" style="rounded=0;whiteSpace=wrap;html=1;fillColor=#d5e8d4;strokeColor=#82b366;" vertex="1" parent="1">
          <mxGeometry x="570" y="-100" width="580" height="390" as="geometry" />
        </mxCell>
        <mxCell id="FrmBiObON0Puny6aP4iV-18" value="" style="edgeStyle=orthogonalEdgeStyle;rounded=0;orthogonalLoop=1;jettySize=auto;html=1;" edge="1" parent="1" source="FrmBiObON0Puny6aP4iV-13" target="FrmBiObON0Puny6aP4iV-16">
          <mxGeometry relative="1" as="geometry" />
        </mxCell>
        <mxCell id="FrmBiObON0Puny6aP4iV-13" value="backend REST api" style="html=1;dropTarget=0;whiteSpace=wrap;" vertex="1" parent="1">
          <mxGeometry x="610" y="50" width="180" height="90" as="geometry" />
        </mxCell>
        <mxCell id="FrmBiObON0Puny6aP4iV-14" value="" style="shape=module;jettyWidth=8;jettyHeight=4;" vertex="1" parent="FrmBiObON0Puny6aP4iV-13">
          <mxGeometry x="1" width="20" height="20" relative="1" as="geometry">
            <mxPoint x="-27" y="7" as="offset" />
          </mxGeometry>
        </mxCell>
        <mxCell id="FrmBiObON0Puny6aP4iV-16" value="DB" style="html=1;dropTarget=0;whiteSpace=wrap;" vertex="1" parent="1">
          <mxGeometry x="850" y="-30" width="180" height="90" as="geometry" />
        </mxCell>
        <mxCell id="FrmBiObON0Puny6aP4iV-17" value="" style="shape=module;jettyWidth=8;jettyHeight=4;" vertex="1" parent="FrmBiObON0Puny6aP4iV-16">
          <mxGeometry x="1" width="20" height="20" relative="1" as="geometry">
            <mxPoint x="-27" y="7" as="offset" />
          </mxGeometry>
        </mxCell>
        <mxCell id="FrmBiObON0Puny6aP4iV-29" value="administrace" style="html=1;dropTarget=0;whiteSpace=wrap;" vertex="1" parent="1">
          <mxGeometry x="850" y="130" width="180" height="90" as="geometry" />
        </mxCell>
        <mxCell id="FrmBiObON0Puny6aP4iV-30" value="" style="shape=module;jettyWidth=8;jettyHeight=4;" vertex="1" parent="FrmBiObON0Puny6aP4iV-29">
          <mxGeometry x="1" width="20" height="20" relative="1" as="geometry">
            <mxPoint x="-27" y="7" as="offset" />
          </mxGeometry>
        </mxCell>
        <mxCell id="FrmBiObON0Puny6aP4iV-31" style="edgeStyle=orthogonalEdgeStyle;rounded=0;orthogonalLoop=1;jettySize=auto;html=1;entryX=0;entryY=0.5;entryDx=0;entryDy=0;" edge="1" parent="1" source="FrmBiObON0Puny6aP4iV-13" target="FrmBiObON0Puny6aP4iV-29">
          <mxGeometry relative="1" as="geometry" />
        </mxCell>
        <mxCell id="FrmBiObON0Puny6aP4iV-32" value="Server (backend)" style="text;html=1;align=center;verticalAlign=middle;whiteSpace=wrap;rounded=0;" vertex="1" parent="1">
          <mxGeometry x="800" y="-150" width="60" height="30" as="geometry" />
        </mxCell>
      </root>
    </mxGraphModel>
  </diagram>
</mxfile>
